<svg xmlns="http://www.w3.org/2000/svg" version="1.1" xmlns:xlink="http://www.w3.org/1999/xlink" xmlns:svgjs="http://svgjs.com/svgjs" width="31.97" height="31.99"><svg id="SvgjsSvg1000" data-name="Layer 1" xmlns="http://www.w3.org/2000/svg" viewBox="0 0 31.97 31.99">
  <defs>
    <style>
      .cls-1 {
        fill: #263455;
      }

      .cls-1, .cls-2 {
        stroke-width: 0px;
      }

      .cls-2 {
        fill: #00ef98;
      }
    </style>
  </defs>
  <circle class="cls-1" cx="15.99" cy="16.12" r="16"></circle>
  <g>
    <path class="cls-2" d="M23.8,22.02s-.48.32-.82.55l1.78,1.26v-2.67c-.2.21-.41.41-.62.59-.11.09-.22.18-.34.27Z"></path>
    <path class="cls-2" d="M18.58,25.13c.54-.54,1.02-1.14,1.44-1.78h0s.05-.07.12-.2c.01-.02.02-.03.03-.05l-3.69-2.62-9.62,6.83c-.2.14-.47,0-.47-.24v-.87h0s0-20.84,0-20.84c0-.16.13-.3.3-.3h1.48c.16,0,.3.13.3.3v12.62h0v5.65l7.85-5.57c.1-.07.24-.07.34,0l4.45,3.16c.17-.43.32-.88.41-1.31h0c.27-1.04.41-2.16.44-3.34-6.29-.54-6.43-5.95-6.43-6.01v-.75c0-.16.12-.3.29-.3h.75c5.02,0,7.47,1.99,7.47,6.07v.75h0c0,.08,0,.16,0,.23v.05h0c-.03,1.06-.13,2.09-.33,3.06.71-.83,1.07-1.76,1.07-2.78v-1.67c0-6.13-4.8-8.11-7.12-8.11h0c-2.34,0-4.07.95-4.74,2.62-.77,1.92-.04,4.4,1.85,6.46.12.13.1.34-.04.44l-1.22.86c-.12.09-.29.07-.39-.04-2.38-2.66-3.2-5.85-2.12-8.51.99-2.46,3.48-3.92,6.67-3.92h0c1.59,0,3.29.54,4.76,1.49-1.52-2.49-4.17-4.95-8.57-6.28C6.01,1.33-.01,8.02-.01,16.12-.01,21.77,2.92,26.73,7.34,29.58c2.2-.17,7.71-.93,11.23-4.44Z"></path>
    <path class="cls-2" d="M18.86.39c6.02,3.8,7.97,10.16,7.97,14.29v3.14h0v9.45c0,.24-.27.38-.47.24l-4.51-3.2c-.52.83-1.13,1.6-1.83,2.3-2.77,2.76-6.5,4.02-9.37,4.6,1.67.59,3.45.91,5.32.91,8.83,0,16-7.16,16-16,0-7.85-5.66-14.38-13.12-15.73Z"></path>
    <path class="cls-2" d="M21.88,14.5c-.22-1.37-1.06-2.59-4.07-2.85.37,1.06,1.37,2.53,4.07,2.85Z"></path>
  </g>
</svg><style>@media (prefers-color-scheme: light) { :root { filter: none; } }
</style></svg>