<?xml version="1.0" encoding="UTF-8"?>
<svg id="Layer_1" data-name="Layer 1" xmlns="http://www.w3.org/2000/svg" viewBox="0 0 31.97 31.99">
  <defs>
    <style>
      .cls-1 {
        fill: #263455;
        stroke-width: 0px;
      }
    </style>
  </defs>
  <path class="cls-1" d="M12.06,17.87c.12-.09.28-.09.4,0l5.21,3.7c.2-.5.37-1.02.47-1.53h0c.31-1.21.48-2.52.51-3.9-7.35-.63-7.51-6.96-7.52-7.03v-.87c-.01-.19.14-.35.34-.35h.87c5.87,0,8.73,2.32,8.73,7.1v.88h0c0,.09,0,.18,0,.27v.06h0c-.03,1.24-.16,2.44-.39,3.58.83-.97,1.25-2.06,1.25-3.25v-1.95c0-7.17-5.61-9.48-8.33-9.48h0c-2.74,0-4.76,1.11-5.55,3.06-.91,2.24-.05,5.14,2.17,7.56.14.15.12.4-.05.52l-1.42,1.01c-.14.1-.34.08-.46-.05-2.78-3.1-3.74-6.84-2.48-9.94,1.16-2.87,4.07-4.58,7.79-4.58h0c1.86,0,3.85.63,5.56,1.74-.93-1.52-2.22-3.02-3.97-4.34C6.75.48.03,7.44.03,15.99c0,3.18.94,6.13,2.54,8.61l9.49-6.74Z"/>
  <path class="cls-1" d="M18.82.28c4.1,4.32,5.53,9.79,5.53,13.62v3.67h0v11.05c0,.28-.32.44-.55.28l-5.27-3.74c-.61.97-1.32,1.87-2.14,2.69-1.49,1.49-3.23,2.59-4.99,3.43,1.46.44,3,.68,4.59.68,8.82,0,15.97-7.15,15.97-15.97,0-7.86-5.68-14.37-13.15-15.71Z"/>
  <path class="cls-1" d="M20.81,22.48s-.56.38-.96.64l2.08,1.48v-3.12c-.23.24-.48.48-.73.69-.13.11-.26.21-.4.31Z"/>
  <path class="cls-1" d="M16.38,24.05h0s.05-.09.14-.23c.01-.02.02-.04.04-.06l-4.31-3.06-8.23,5.84c1.2,1.36,2.63,2.53,4.23,3.42,2.24-.78,4.58-1.97,6.44-3.83.63-.63,1.19-1.33,1.68-2.08Z"/>
  <path class="cls-1" d="M18.57,13.69c-.26-1.6-1.24-3.03-4.76-3.33.43,1.24,1.6,2.96,4.76,3.33Z"/>
</svg>