<?xml version="1.0" encoding="UTF-8"?>
<svg id="Layer_1" data-name="Layer 1" xmlns="http://www.w3.org/2000/svg" viewBox="0 0 175.96 31.99">
  <defs>
    <style>
      .cls-1 {
        fill: #263455;
      }

      .cls-1, .cls-2 {
        stroke-width: 0px;
      }

      .cls-2 {
        fill: #00ef98;
      }
    </style>
  </defs>
  <g>
    <path class="cls-1" d="M38.58,27.24V4.79c0-.17.14-.31.31-.31h8.97c3.31,0,6.05,1.09,8.21,3.26,2.16,2.17,3.24,4.92,3.24,8.23v.1c0,3.31-1.08,6.05-3.24,8.23-2.16,2.17-4.9,3.26-8.21,3.26h-8.97c-.17,0-.31-.14-.31-.31ZM47.82,7.75h-5.59c-.17,0-.31.14-.31.31v15.9c0,.17.14.31.31.31h5.59c2.37,0,4.31-.76,5.83-2.29s2.28-3.5,2.28-5.92v-.1c0-2.41-.76-4.39-2.28-5.92-1.52-1.53-3.46-2.29-5.83-2.29Z"/>
    <path class="cls-1" d="M61.17,10.51h2.65c.17,0,.31.14.31.31v16.45c0,.17-.14.31-.31.31h-2.65c-.17,0-.31-.14-.31-.31V10.83c0-.17.14-.31.31-.31Z"/>
    <path class="cls-1" d="M85.76,10.07c1.98,0,3.54.64,4.67,1.93,1.14,1.29,1.71,2.99,1.71,5.11v10.17c0,.17-.14.31-.31.31h-2.65c-.17,0-.31-.14-.31-.31v-9.83c0-1.31-.34-2.35-1.02-3.1-.68-.76-1.6-1.14-2.78-1.14s-2.12.45-2.97,1.35c-.85.9-1.28,2.23-1.28,4v8.72c0,.17-.14.31-.31.31h-2.65c-.17,0-.31-.14-.31-.31v-9.83c0-1.31-.34-2.35-1.02-3.12-.68-.77-1.62-1.14-2.81-1.12-1.26.02-2.29.56-3.07,1.62-.78,1.06-1.17,2.39-1.17,4v8.45c0,.17-.14.31-.31.31h-2.65c-.17,0-.31-.14-.31-.31V10.83c0-.17.14-.31.31-.31h2.51c.17,0,.31.14.31.31v2.14h.14c1.17-1.93,2.85-2.9,5.04-2.9,2.51,0,4.31,1.1,5.42,3.31h.1c1.2-2.21,3.1-3.31,5.73-3.31Z"/>
    <path class="cls-1" d="M102.22,10.03c2.78,0,5,.98,6.64,2.93,1.59,1.89,2.3,4.2,2.14,6.94,0,.17-.15.3-.32.3h-13.45c-.19,0-.34.17-.32.36.18,1.2.74,2.2,1.68,3.02,1.03.9,2.31,1.35,3.83,1.35,1.1,0,2.08-.24,2.93-.72.79-.45,1.39-1.04,1.78-1.77.05-.1.15-.16.27-.16h2.78c.22,0,.38.22.3.43-.6,1.59-1.58,2.86-2.96,3.82-1.5,1.03-3.24,1.55-5.24,1.55-2.67,0-4.82-.87-6.45-2.6-1.63-1.74-2.45-3.87-2.45-6.4s.83-4.7,2.48-6.43c1.66-1.74,3.77-2.6,6.35-2.6ZM102.15,13.17c-1.33,0-2.47.39-3.42,1.16-.84.69-1.4,1.55-1.7,2.59-.06.2.1.4.31.4h9.68c.2,0,.36-.2.31-.4-.29-1.06-.87-1.93-1.72-2.6-.95-.76-2.11-1.14-3.47-1.14Z"/>
    <path class="cls-1" d="M128.97,21.98l3.53-11.25c.04-.13.16-.22.3-.22h2.85c.21,0,.36.21.3.41l-5.48,16.45c-.04.13-.16.21-.3.21h-2.82c-.14,0-.26-.09-.3-.22l-3.6-11.23c-.09-.29-.5-.29-.6,0l-3.53,11.22c-.04.13-.16.22-.3.22h-2.86c-.13,0-.25-.09-.3-.21l-5.48-16.45c-.07-.2.08-.41.3-.41h2.89c.14,0,.26.09.3.22l3.53,11.21c.09.29.51.29.6,0l3.5-11.21c.04-.13.16-.22.3-.22h2.75c.14,0,.26.09.3.22l3.53,11.25c.09.29.51.29.6,0Z"/>
    <path class="cls-1" d="M137.77,10.51h2.65c.17,0,.31.14.31.31v16.45c0,.17-.14.31-.31.31h-2.65c-.17,0-.31-.14-.31-.31V10.83c0-.17.14-.31.31-.31Z"/>
    <path class="cls-1" d="M146.84,10.51h9.17c.17,0,.31.14.31.31v2.55c0,.17-.14.31-.31.31h-9.1c-.44,0-.79.13-1.05.4s-.4.62-.4,1.05c0,.81.38,1.29,1.14,1.45l7.04,1.59c1.2.28,2.14.83,2.85,1.66.7.83,1.05,1.82,1.05,2.97,0,1.38-.46,2.52-1.38,3.43-.92.91-2.08,1.36-3.48,1.36h-9.66c-.17,0-.31-.14-.31-.31v-2.55c0-.17.14-.31.31-.31h9.59c.44,0,.79-.14,1.07-.43.28-.29.41-.67.41-1.16,0-.83-.39-1.33-1.17-1.52l-7.07-1.55c-1.17-.25-2.1-.8-2.79-1.64-.69-.84-1.03-1.82-1.03-2.95,0-1.36.45-2.47,1.36-3.35.91-.87,2.06-1.31,3.47-1.31Z"/>
    <path class="cls-1" d="M167.16,10.03c2.78,0,5,.98,6.64,2.93,1.59,1.89,2.3,4.2,2.14,6.94,0,.17-.15.3-.32.3h-13.45c-.19,0-.34.17-.32.36.18,1.2.74,2.2,1.68,3.02,1.03.9,2.31,1.35,3.83,1.35,1.1,0,2.08-.24,2.93-.72.79-.45,1.39-1.04,1.78-1.77.05-.1.15-.16.27-.16h2.78c.22,0,.38.22.3.43-.6,1.59-1.58,2.86-2.96,3.82-1.5,1.03-3.24,1.55-5.24,1.55-2.67,0-4.82-.87-6.45-2.6-1.63-1.74-2.45-3.87-2.45-6.4s.83-4.7,2.48-6.43c1.66-1.74,3.77-2.6,6.35-2.6ZM167.09,13.17c-1.33,0-2.47.39-3.42,1.16-.84.69-1.4,1.55-1.7,2.59-.06.2.1.4.31.4h9.68c.2,0,.36-.2.31-.4-.29-1.06-.87-1.93-1.72-2.6-.95-.76-2.11-1.14-3.47-1.14Z"/>
    <rect class="cls-1" x="60.86" y="4.48" width="3.28" height="3.28" rx=".31" ry=".31"/>
    <rect class="cls-1" x="137.46" y="4.48" width="3.28" height="3.28" rx=".31" ry=".31"/>
  </g>
  <g>
    <circle class="cls-1" cx="16" cy="16" r="16"/>
    <g>
      <path class="cls-2" d="M23.81,21.9s-.48.32-.82.55l1.78,1.26v-2.67c-.2.21-.41.41-.62.59-.11.09-.22.18-.34.27Z"/>
      <path class="cls-2" d="M18.59,25.01c.54-.54,1.02-1.14,1.44-1.78h0s.05-.07.12-.2c.01-.02.02-.03.03-.05l-3.69-2.62-9.62,6.83c-.2.14-.47,0-.47-.24v-.87h0s0-20.84,0-20.84c0-.16.13-.3.3-.3h1.48c.16,0,.3.13.3.3v12.62h0v5.65l7.85-5.57c.1-.07.24-.07.34,0l4.45,3.16c.17-.43.32-.88.41-1.31h0c.27-1.04.41-2.16.44-3.34-6.29-.54-6.43-5.95-6.43-6.01v-.75c0-.16.12-.3.29-.3h.75c5.02,0,7.47,1.99,7.47,6.07v.75h0c0,.08,0,.16,0,.23v.05h0c-.03,1.06-.13,2.09-.33,3.06.71-.83,1.07-1.76,1.07-2.78v-1.67c0-6.13-4.8-8.11-7.12-8.11h0c-2.34,0-4.07.95-4.74,2.62-.77,1.92-.04,4.4,1.85,6.46.12.13.1.34-.04.44l-1.22.86c-.12.09-.29.07-.39-.04-2.38-2.66-3.2-5.85-2.12-8.51.99-2.46,3.48-3.92,6.67-3.92h0c1.59,0,3.29.54,4.76,1.49C20.89,3.94,18.24,1.47,13.84.15,6.02,1.21,0,7.9,0,16,0,21.65,2.93,26.61,7.35,29.45c2.2-.17,7.71-.93,11.23-4.44Z"/>
      <path class="cls-2" d="M18.87.27c6.02,3.8,7.97,10.16,7.97,14.29v3.14h0v9.45c0,.24-.27.38-.47.24l-4.51-3.2c-.52.83-1.13,1.6-1.83,2.3-2.77,2.76-6.5,4.02-9.37,4.6,1.67.59,3.45.91,5.32.91,8.83,0,16-7.16,16-16,0-7.85-5.66-14.38-13.12-15.73Z"/>
      <path class="cls-2" d="M21.89,14.38c-.22-1.37-1.06-2.59-4.07-2.85.37,1.06,1.37,2.53,4.07,2.85Z"/>
    </g>
  </g>
</svg>