<?xml version="1.0" encoding="UTF-8"?>
<svg id="Layer_1" data-name="Layer 1" xmlns="http://www.w3.org/2000/svg" viewBox="0 0 175.96 31.99">
  <defs>
    <style>
      .cls-1 {
        fill: #263455;
        stroke-width: 0px;
      }
    </style>
  </defs>
  <g>
    <path class="cls-1" d="M38.55,28.01V5.56c0-.17.14-.31.31-.31h8.97c3.31,0,6.05,1.09,8.21,3.26,2.16,2.17,3.24,4.92,3.24,8.23v.1c0,3.31-1.08,6.05-3.24,8.23-2.16,2.17-4.9,3.26-8.21,3.26h-8.97c-.17,0-.31-.14-.31-.31ZM47.79,8.52h-5.59c-.17,0-.31.14-.31.31v15.9c0,.17.14.31.31.31h5.59c2.37,0,4.31-.76,5.83-2.29s2.28-3.5,2.28-5.92v-.1c0-2.41-.76-4.39-2.28-5.92-1.52-1.53-3.46-2.29-5.83-2.29Z"/>
    <path class="cls-1" d="M61.14,11.28h2.65c.17,0,.31.14.31.31v16.45c0,.17-.14.31-.31.31h-2.65c-.17,0-.31-.14-.31-.31V11.59c0-.17.14-.31.31-.31Z"/>
    <path class="cls-1" d="M85.74,10.83c1.98,0,3.54.64,4.67,1.93,1.14,1.29,1.71,2.99,1.71,5.11v10.17c0,.17-.14.31-.31.31h-2.65c-.17,0-.31-.14-.31-.31v-9.83c0-1.31-.34-2.35-1.02-3.1-.68-.76-1.6-1.14-2.78-1.14s-2.12.45-2.97,1.35c-.85.9-1.28,2.23-1.28,4v8.72c0,.17-.14.31-.31.31h-2.65c-.17,0-.31-.14-.31-.31v-9.83c0-1.31-.34-2.35-1.02-3.12-.68-.77-1.62-1.14-2.81-1.12-1.26.02-2.29.56-3.07,1.62-.78,1.06-1.17,2.39-1.17,4v8.45c0,.17-.14.31-.31.31h-2.65c-.17,0-.31-.14-.31-.31V11.59c0-.17.14-.31.31-.31h2.51c.17,0,.31.14.31.31v2.14h.14c1.17-1.93,2.85-2.9,5.04-2.9,2.51,0,4.31,1.1,5.42,3.31h.1c1.2-2.21,3.1-3.31,5.73-3.31Z"/>
    <path class="cls-1" d="M102.19,10.8c2.78,0,5,.98,6.64,2.93,1.59,1.89,2.3,4.2,2.14,6.94,0,.17-.15.3-.32.3h-13.45c-.19,0-.34.17-.32.36.18,1.2.74,2.2,1.68,3.02,1.03.9,2.31,1.35,3.83,1.35,1.1,0,2.08-.24,2.93-.72.79-.45,1.39-1.04,1.78-1.77.05-.1.15-.16.27-.16h2.78c.22,0,.38.22.3.43-.6,1.59-1.58,2.86-2.96,3.82-1.5,1.03-3.24,1.55-5.24,1.55-2.67,0-4.82-.87-6.45-2.6-1.63-1.74-2.45-3.87-2.45-6.4s.83-4.7,2.48-6.43c1.66-1.74,3.77-2.6,6.35-2.6ZM102.12,13.94c-1.33,0-2.47.39-3.42,1.16-.84.69-1.4,1.55-1.7,2.59-.06.2.1.4.31.4h9.68c.2,0,.36-.2.31-.4-.29-1.06-.87-1.93-1.72-2.6-.95-.76-2.11-1.14-3.47-1.14Z"/>
    <path class="cls-1" d="M128.94,22.75l3.53-11.25c.04-.13.16-.22.3-.22h2.85c.21,0,.36.21.3.41l-5.48,16.45c-.04.13-.16.21-.3.21h-2.82c-.14,0-.26-.09-.3-.22l-3.6-11.23c-.09-.29-.5-.29-.6,0l-3.53,11.22c-.04.13-.16.22-.3.22h-2.86c-.13,0-.25-.09-.3-.21l-5.48-16.45c-.07-.2.08-.41.3-.41h2.89c.14,0,.26.09.3.22l3.53,11.21c.09.29.51.29.6,0l3.5-11.21c.04-.13.16-.22.3-.22h2.75c.14,0,.26.09.3.22l3.53,11.25c.09.29.51.29.6,0Z"/>
    <path class="cls-1" d="M137.75,11.28h2.65c.17,0,.31.14.31.31v16.45c0,.17-.14.31-.31.31h-2.65c-.17,0-.31-.14-.31-.31V11.59c0-.17.14-.31.31-.31Z"/>
    <path class="cls-1" d="M146.81,11.28h9.17c.17,0,.31.14.31.31v2.55c0,.17-.14.31-.31.31h-9.1c-.44,0-.79.13-1.05.4s-.4.62-.4,1.05c0,.81.38,1.29,1.14,1.45l7.04,1.59c1.2.28,2.14.83,2.85,1.66.7.83,1.05,1.82,1.05,2.97,0,1.38-.46,2.52-1.38,3.43-.92.91-2.08,1.36-3.48,1.36h-9.66c-.17,0-.31-.14-.31-.31v-2.55c0-.17.14-.31.31-.31h9.59c.44,0,.79-.14,1.07-.43.28-.29.41-.67.41-1.16,0-.83-.39-1.33-1.17-1.52l-7.07-1.55c-1.17-.25-2.1-.8-2.79-1.64-.69-.84-1.03-1.82-1.03-2.95,0-1.36.45-2.47,1.36-3.35.91-.87,2.06-1.31,3.47-1.31Z"/>
    <path class="cls-1" d="M167.13,10.8c2.78,0,5,.98,6.64,2.93,1.59,1.89,2.3,4.2,2.14,6.94,0,.17-.15.3-.32.3h-13.45c-.19,0-.34.17-.32.36.18,1.2.74,2.2,1.68,3.02,1.03.9,2.31,1.35,3.83,1.35,1.1,0,2.08-.24,2.93-.72.79-.45,1.39-1.04,1.78-1.77.05-.1.15-.16.27-.16h2.78c.22,0,.38.22.3.43-.6,1.59-1.58,2.86-2.96,3.82-1.5,1.03-3.24,1.55-5.24,1.55-2.67,0-4.82-.87-6.45-2.6-1.63-1.74-2.45-3.87-2.45-6.4s.83-4.7,2.48-6.43c1.66-1.74,3.77-2.6,6.35-2.6ZM167.06,13.94c-1.33,0-2.47.39-3.42,1.16-.84.69-1.4,1.55-1.7,2.59-.06.2.1.4.31.4h9.68c.2,0,.36-.2.31-.4-.29-1.06-.87-1.93-1.72-2.6-.95-.76-2.11-1.14-3.47-1.14Z"/>
    <rect class="cls-1" x="60.83" y="5.25" width="3.28" height="3.28" rx=".31" ry=".31"/>
    <rect class="cls-1" x="137.43" y="5.25" width="3.28" height="3.28" rx=".31" ry=".31"/>
  </g>
  <g>
    <path class="cls-1" d="M12.06,17.87c.12-.09.28-.09.4,0l5.21,3.7c.2-.5.37-1.02.47-1.53h0c.31-1.21.48-2.52.51-3.9-7.35-.63-7.51-6.96-7.52-7.03v-.87c-.01-.19.14-.35.34-.35h.87c5.87,0,8.73,2.32,8.73,7.1v.88h0c0,.09,0,.18,0,.27v.06h0c-.03,1.24-.16,2.44-.39,3.58.83-.97,1.25-2.06,1.25-3.25v-1.95c0-7.17-5.61-9.48-8.33-9.48h0c-2.74,0-4.76,1.11-5.55,3.06-.91,2.24-.05,5.14,2.17,7.56.14.15.12.4-.05.52l-1.42,1.01c-.14.1-.34.08-.46-.05-2.78-3.1-3.74-6.84-2.48-9.94,1.16-2.87,4.07-4.58,7.79-4.58h0c1.86,0,3.85.63,5.56,1.74-.93-1.52-2.22-3.02-3.97-4.34C6.75.48.03,7.44.03,15.99c0,3.18.94,6.13,2.54,8.61l9.49-6.74Z"/>
    <path class="cls-1" d="M18.82.28c4.1,4.32,5.53,9.79,5.53,13.62v3.67h0v11.05c0,.28-.32.44-.55.28l-5.27-3.74c-.61.97-1.32,1.87-2.14,2.69-1.49,1.49-3.23,2.59-4.99,3.43,1.46.44,3,.68,4.59.68,8.82,0,15.97-7.15,15.97-15.97,0-7.86-5.68-14.37-13.15-15.71Z"/>
    <path class="cls-1" d="M20.81,22.48s-.56.38-.96.64l2.08,1.48v-3.12c-.23.24-.48.48-.73.69-.13.11-.26.21-.4.31Z"/>
    <path class="cls-1" d="M16.38,24.05h0s.05-.09.14-.23c.01-.02.02-.04.04-.06l-4.31-3.06-8.23,5.84c1.2,1.36,2.63,2.53,4.23,3.42,2.24-.78,4.58-1.97,6.44-3.83.63-.63,1.19-1.33,1.68-2.08Z"/>
    <path class="cls-1" d="M18.57,13.69c-.26-1.6-1.24-3.03-4.76-3.33.43,1.24,1.6,2.96,4.76,3.33Z"/>
  </g>
</svg>